<mxfile host="app.diagrams.net" modified="2021-06-22T09:57:00.607Z" agent="5.0 (Windows)" etag="sJURBVJB2TSHrQYpqhaQ" version="14.8.0" type="github">
  <diagram name="Page-1" id="aaaa8250-4180-3840-79b5-4cada1eebb92">
    <mxGraphModel dx="1038" dy="547" grid="1" gridSize="10" guides="1" tooltips="1" connect="1" arrows="1" fold="1" page="1" pageScale="1" pageWidth="850" pageHeight="1100" background="none" math="0" shadow="0">
      <root>
        <mxCell id="0" />
        <mxCell id="1" parent="0" />
        <mxCell id="LzzkxTC76rUSZ3_zglEJ-8" value="" style="group" parent="1" vertex="1" connectable="0">
          <mxGeometry x="230" y="500" width="30" height="190" as="geometry" />
        </mxCell>
        <mxCell id="LzzkxTC76rUSZ3_zglEJ-1" value="" style="shape=image;html=1;verticalAlign=top;verticalLabelPosition=bottom;labelBackgroundColor=#ffffff;imageAspect=0;aspect=fixed;image=https://cdn1.iconfinder.com/data/icons/finance-160/64/speed_meter-performance-business-finance-128.png" parent="LzzkxTC76rUSZ3_zglEJ-8" vertex="1">
          <mxGeometry width="30" height="30" as="geometry" />
        </mxCell>
        <mxCell id="LzzkxTC76rUSZ3_zglEJ-2" value="" style="shape=image;html=1;verticalAlign=top;verticalLabelPosition=bottom;labelBackgroundColor=#ffffff;imageAspect=0;aspect=fixed;image=https://cdn1.iconfinder.com/data/icons/finance-160/64/speed_meter-performance-business-finance-128.png" parent="LzzkxTC76rUSZ3_zglEJ-8" vertex="1">
          <mxGeometry y="53" width="30" height="30" as="geometry" />
        </mxCell>
        <mxCell id="LzzkxTC76rUSZ3_zglEJ-6" value="" style="shape=image;html=1;verticalAlign=top;verticalLabelPosition=bottom;labelBackgroundColor=#ffffff;imageAspect=0;aspect=fixed;image=https://cdn1.iconfinder.com/data/icons/finance-160/64/speed_meter-performance-business-finance-128.png" parent="LzzkxTC76rUSZ3_zglEJ-8" vertex="1">
          <mxGeometry y="107" width="30" height="30" as="geometry" />
        </mxCell>
        <mxCell id="LzzkxTC76rUSZ3_zglEJ-7" value="" style="shape=image;html=1;verticalAlign=top;verticalLabelPosition=bottom;labelBackgroundColor=#ffffff;imageAspect=0;aspect=fixed;image=https://cdn1.iconfinder.com/data/icons/finance-160/64/speed_meter-performance-business-finance-128.png" parent="LzzkxTC76rUSZ3_zglEJ-8" vertex="1">
          <mxGeometry y="160" width="30" height="30" as="geometry" />
        </mxCell>
        <mxCell id="PYcPBt_MoXZQ99u-aOuV-4" value="" style="endArrow=none;html=1;rounded=0;" edge="1" parent="1">
          <mxGeometry relative="1" as="geometry">
            <mxPoint x="120" y="730" as="sourcePoint" />
            <mxPoint x="120" y="380" as="targetPoint" />
            <Array as="points">
              <mxPoint x="120" y="700" />
              <mxPoint x="160" y="680" />
              <mxPoint x="120" y="660" />
              <mxPoint x="120" y="580" />
              <mxPoint x="160" y="560" />
              <mxPoint x="120" y="540" />
            </Array>
          </mxGeometry>
        </mxCell>
      </root>
    </mxGraphModel>
  </diagram>
</mxfile>
